<svg width="24" height="24" viewBox="0 0 24 24" fill="none" xmlns="http://www.w3.org/2000/svg">
<path fill-rule="evenodd" clip-rule="evenodd" d="M5.00001 3C5.5523 3 6.00001 3.44772 6.00001 4V5.42327C6.49752 4.96268 7.01962 4.55425 7.58008 4.21024C8.86302 3.42278 10.3022 3 12.0283 3C16.9989 3 21.0283 7.02944 21.0283 12C21.0283 16.9706 16.9989 21 12.0283 21C8.10811 21 4.77574 18.4941 3.54071 14.9999C3.35666 14.4792 3.62959 13.9079 4.1503 13.7238C4.67102 13.5398 5.24234 13.8127 5.42639 14.3334C6.38782 17.0536 8.98205 19 12.0283 19C15.8943 19 19.0283 15.866 19.0283 12C19.0283 8.13401 15.8943 5 12.0283 5C10.6585 5 9.58355 5.32722 8.62631 5.91476C8.15214 6.20581 7.69661 6.56697 7.24259 7H9.00001C9.5523 7 10 7.44772 10 8C10 8.55228 9.5523 9 9.00001 9H5.00001C4.44773 9 4.00001 8.55228 4.00001 8V4C4.00001 3.44772 4.44773 3 5.00001 3Z" fill="white"/>
</svg>
